<?xml version="1.0" standalone="no"?><!DOCTYPE svg PUBLIC "-//W3C//DTD SVG 1.1//EN" "http://www.w3.org/Graphics/SVG/1.1/DTD/svg11.dtd"><svg viewBox="0 0 1024 1024" version="1.1" xmlns="http://www.w3.org/2000/svg" xmlns:xlink="http://www.w3.org/1999/xlink" width="256" height="256"><defs><style type="text/css"></style></defs><path d="M405.42208 886.1696H152.38656c-34.0992 0-61.83424-28.62592-61.83424-63.77984V136.97024c0-35.18464 27.72992-63.78496 61.83424-63.78496H796.4672c34.0992 0 61.83424 28.63104 61.83424 63.78496V396.9536h-61.83424V136.96l-644.05504-1.9456v687.37024l253.0304 1.9456v61.83936h-0.0256zM241.4592 223.42144h435.0464v61.83424H241.4592V223.41632z m0 150.23104h350.73536v61.83424H241.4592V373.64736z m0 150.20032h235.4432v61.83424H241.4592v-61.83424z m0 150.26176h235.4432v61.83424H241.4592v-61.83424z m715.84768 179.57376l-93.55776-174.47424c9.6768-21.7344 15.27296-45.696 15.36512-70.9888 0.37376-97.51552-78.40768-176.91136-176.01536-177.2544-97.54624-0.43008-176.9728 78.38208-177.31584 175.9232-0.12288 25.91232 5.6576 50.24768 15.55456 72.4736l-95.29344 172.27776a16.1024 16.1024 0 0 0 1.1776 17.408 16.09728 16.09728 0 0 0 16.41472 6.03136l80.72704-18.24256 27.33568 76.98432a16.30208 16.30208 0 0 0 13.81888 10.7008c0.43008-0.03584 0.80384 0 1.26464 0a16.03584 16.03584 0 0 0 14.19264-8.38144l83.26144-153.728c5.87776 0.65024 11.53536 1.82272 17.53088 1.88928 5.47328 0 10.7008-1.08544 16.13824-1.6384l83.85024 154.28096a15.80032 15.80032 0 0 0 14.10048 8.43776c0.36864 0.09216 0.768 0.03072 1.26464-0.03072a16.2816 16.2816 0 0 0 13.94688-10.4448l27.82208-76.80512 80.54272 18.7392a15.7952 15.7952 0 0 0 16.384-5.81632 16.0768 16.0768 0 0 0 1.48992-17.34144z m-371.1744-21.30432l-10.04544-28.32384a7.99744 7.99744 0 0 0-9.43104-5.16096l-29.98784 6.7072 42.4448-76.2112c15.58528 15.73888 28.32384 22.6304 45.73184 32.21504l-38.7072 70.77376z m115.66592-112.60416c-62.14144-0.3072-112.60416-51.07712-112.29184-113.28512 0.18432-62.14656 50.97984-112.60416 113.18784-112.32256 62.17728 0.21504 112.54272 50.97984 112.29696 113.15712-0.21504 62.208-50.98496 112.60416-113.19296 112.45056z m138.32704 91.42272c-4.7616-1.1776-9.48736 1.57696-11.13088 6.03136l-11.9296 33.45408-45.48096-83.57376c20.58752-11.28448 35.584-19.47648 54.07232-37.96992l49.8432 90.06592-35.37408-8.00768z" fill="#e98f36"></path></svg>