<?xml version="1.0" standalone="no"?><!DOCTYPE svg PUBLIC "-//W3C//DTD SVG 1.1//EN" "http://www.w3.org/Graphics/SVG/1.1/DTD/svg11.dtd"><svg viewBox="0 0 1120 1120" version="1.1" xmlns="http://www.w3.org/2000/svg" xmlns:xlink="http://www.w3.org/1999/xlink" width="256" height="256"><defs><style type="text/css"></style></defs><path d="M510.567164 474.746269c-137.552239 0-250.268657-106.029851-250.268657-237.850747S373.014925 0 510.567164 0s250.268657 106.029851 250.268657 237.850746-112.716418 236.895522-250.268657 236.895523z m0-72.597015c99.343284 0 178.626866-74.507463 178.626866-164.298508S609.910448 73.552239 510.567164 73.552239s-178.626866 74.507463-178.626865 164.298507 79.283582 164.298507 178.626865 164.298508z m250.268657 584.597015H689.19403C689.19403 885.492537 609.910448 804.298507 510.567164 804.298507s-178.626866 82.149254-178.626865 182.447762h-71.641792c0-141.373134 111.761194-256 250.268657-256s250.268657 114.626866 250.268657 256z" fill="#2e53f4"></path><path d="M339.58209 550.208955c-47.761194 0-91.701493 37.253731-118.447762 83.104478L116.059701 816.716418c-13.373134 23.880597-14.328358 54.447761-0.955223 78.328358 14.328358 26.746269 40.119403 53.492537 66.865671 53.492537h662.925373c25.791045 0 49.671642-25.791045 62.089553-51.582089 12.41791-24.835821 11.462687-55.402985-1.910448-79.283582L802.865672 635.223881c-26.746269-46.80597-71.641791-85.014925-119.402985-85.014926h-343.880597z m0-75.462686h343.880597C756.059701 474.746269 822.925373 517.731343 862.089552 588.41791l102.208955 182.447762c28.656716 50.626866 29.61194 116.537313 3.820896 169.074627-25.791045 51.58209-72.597015 84.059701-124.179104 84.059701H181.970149c-51.58209 0-99.343284-31.522388-127.044776-82.149254-28.656716-52.537313-27.701493-119.402985 1.910448-170.985074l105.074627-183.402985C202.029851 516.776119 268.895522 474.746269 339.58209 474.746269z" fill="#2e53f4"></path><path d="M574.567164 796.656716l-64-45.850746 171.940299-246.447761 63.044776 45.850746z" fill="#2e53f4"></path></svg>