<?xml version="1.0" encoding="utf-8"?>
<!-- Generator: Adobe Illustrator 16.0.0, SVG Export Plug-In . SVG Version: 6.00 Build 0)  -->
<!DOCTYPE svg PUBLIC "-//W3C//DTD SVG 1.1//EN" "http://www.w3.org/Graphics/SVG/1.1/DTD/svg11.dtd">
<svg version="1.1" xmlns="http://www.w3.org/2000/svg" xmlns:xlink="http://www.w3.org/1999/xlink" x="0px" y="0px"
	 width="195.875px" height="128px" viewBox="0 0 195.875 128" enable-background="new 0 0 195.875 128" xml:space="preserve">
<path fill="#D0D0D0" d="M19.583,87.47h2.637c0.711,0.015,1.28,0.595,1.28,1.306c0,0.721-0.562,1.306-1.28,1.306h-2.637v2.637
	c-0.015,0.711-0.595,1.28-1.306,1.28c-0.709,0.011-1.294-0.555-1.306-1.264c0-0.006,0-0.012,0-0.017v-2.637h-2.637
	c-0.71-0.015-1.279-0.595-1.279-1.306c0-0.721,0.562-1.306,1.279-1.306h2.637v-2.638c0.014-0.71,0.595-1.279,1.306-1.279
	c0.721,0,1.306,0.563,1.306,1.279V87.47z M191.911,77.025v-2.637c-0.003-0.709-0.58-1.283-1.29-1.279c-0.005,0-0.01,0-0.016,0
	c-0.711,0-1.291,0.568-1.305,1.279v2.637h-2.638c-0.71,0.003-1.282,0.58-1.279,1.29c0,0.005,0,0.011,0,0.016
	c0,0.7,0.574,1.306,1.279,1.306h2.638v2.637c0,0.719,0.584,1.279,1.305,1.279c0.711,0,1.291-0.568,1.306-1.279v-2.637h2.638
	c0.718,0,1.279-0.585,1.279-1.306c0-0.711-0.568-1.291-1.279-1.306H191.911z M97.058,120.107H31.325
	c-1.437,0.002-2.602-1.161-2.604-2.598c0-0.004,0-0.009,0-0.014c0-1.44,1.183-2.61,2.604-2.61h11.841
	c-0.914-1.583-1.393-3.381-1.389-5.209V33.931c0.003-5.764,4.678-10.434,10.442-10.431c0.004,0,0.009,0,0.013,0h7.822v-2.625
	c0.003-5.764,4.678-10.434,10.442-10.431c0.004,0,0.008,0,0.013,0h62.644c5.762-0.013,10.441,4.646,10.455,10.407
	c0,0.008,0,0.016,0,0.023v75.746c0,1.898-0.507,3.677-1.393,5.209h14.445c1.443,0,2.613,1.16,2.613,2.611
	c0,1.441-1.162,2.611-2.611,2.611H125.33v2.624c0,1.897-0.507,3.677-1.393,5.209h1.4c1.436,0,2.604,1.159,2.604,2.61
	c0,1.441-1.184,2.611-2.604,2.611h-13.736c1.193,2,0.934,4.622-0.803,6.358c-2.029,2.039-5.327,2.047-7.366,0.017
	c-0.006-0.006-0.012-0.011-0.017-0.017L97.058,120.107z M106.604,114.886h8.303c2.873,0,5.201-2.323,5.201-5.235V33.808
	c0-2.82-2.256-5.086-5.039-5.086h-63.03c-2.784,0-5.04,2.277-5.04,5.086v75.843c0,2.891,2.35,5.235,5.199,5.235h39.636l-1.342-1.345
	c-1.324-1.317-1.842-3.243-1.358-5.047l-2.465-2.468c-8.099,6.029-19.553,4.351-25.582-3.749
	c-5.409-7.266-4.682-17.396,1.709-23.815c7.125-7.15,18.698-7.171,25.848-0.046c6.454,6.43,7.186,16.632,1.717,23.918l2.467,2.468
	c1.804-0.487,3.73,0.03,5.047,1.354L106.604,114.886z M125.33,101.83h7.856c2.874-0.014,5.197-2.348,5.198-5.222v-75.72
	c0-2.893-2.328-5.222-5.198-5.222H70.472c-2.873,0.016-5.194,2.349-5.196,5.222V23.5h49.599c5.762-0.013,10.441,4.646,10.455,10.407
	c0,0.008,0,0.016,0,0.024V101.83z M33.291,5.875h3.891c1.097,0,1.984,0.869,1.984,1.958c0,1.081-0.888,1.958-1.984,1.958h-3.891
	v3.89c0,1.097-0.869,1.984-1.958,1.984c-1.089-0.007-1.965-0.896-1.958-1.984c0,0,0,0,0,0v-3.89h-3.89
	C24.398,9.801,23.51,8.93,23.5,7.844c0-0.003,0-0.007,0-0.011c0-1.081,0.888-1.958,1.984-1.958h3.89V1.984
	c0-1.097,0.87-1.984,1.958-1.984c1.081,0,1.958,0.888,1.958,1.984V5.875z M84.953,100.619c5.099-5.1,5.099-13.366,0-18.465
	c-5.099-5.1-13.366-5.1-18.465,0l0,0c-5.099,5.099-5.099,13.365,0,18.465C71.586,105.718,79.854,105.718,84.953,100.619z
	 M57.443,39.166c0-1.441,1.167-2.609,2.608-2.611h28.724c1.442,0,2.611,1.169,2.611,2.611s-1.169,2.611-2.611,2.611H60.054
	c-1.438,0.004-2.606-1.157-2.611-2.595C57.443,39.176,57.443,39.171,57.443,39.166z M57.443,52.221c0-1.441,1.162-2.611,2.593-2.611
	h41.813c1.431,0,2.593,1.159,2.593,2.611c0,1.441-1.162,2.611-2.593,2.611H60.036c-1.434-0.001-2.594-1.165-2.593-2.598
	C57.443,52.229,57.443,52.225,57.443,52.221z M57.443,65.275c0-1.441,1.165-2.61,2.606-2.61h18.288c1.438,0,2.606,1.159,2.606,2.61
	c0,1.441-1.165,2.611-2.606,2.611H60.049c-1.437,0.003-2.603-1.158-2.606-2.596C57.443,65.287,57.443,65.281,57.443,65.275z
	 M7.833,49.61c-4.326,0.002-7.835-3.503-7.837-7.83c-0.002-4.326,3.503-7.834,7.829-7.837c0.003,0,0.005,0,0.008,0
	c4.326,0,7.833,3.507,7.833,7.833C15.666,46.103,12.159,49.61,7.833,49.61L7.833,49.61z M7.833,45.693
	c2.163,0,3.917-1.754,3.917-3.917c0-2.163-1.753-3.917-3.917-3.917l0,0c-2.163,0-3.917,1.754-3.917,3.917
	C3.917,43.939,5.67,45.693,7.833,45.693z M169.717,33.943c-4.325,0-7.832-3.507-7.832-7.833s3.507-7.833,7.832-7.833
	c4.326,0,7.834,3.507,7.834,7.833S174.043,33.943,169.717,33.943z M169.717,30.027c2.164,0,3.917-1.753,3.917-3.917
	s-1.753-3.917-3.917-3.917l0,0c-2.162,0-3.916,1.753-3.916,3.917S167.555,30.027,169.717,30.027z"/>
</svg>
