<?xml version="1.0" standalone="no"?><!DOCTYPE svg PUBLIC "-//W3C//DTD SVG 1.1//EN" "http://www.w3.org/Graphics/SVG/1.1/DTD/svg11.dtd"><svg viewBox="0 0 1096 1096" version="1.1" xmlns="http://www.w3.org/2000/svg" xmlns:xlink="http://www.w3.org/1999/xlink" width="256" height="256"><defs><style type="text/css"></style></defs><path d="M794.624 366.24c-5.952-8.896-15.936-14.24-26.624-14.24l-32 0c-17.696 0-32 14.304-32 32l0 192c0 17.696 14.304 32 32 32l128 0c17.696 0 32-14.304 32-32l0-48c0-6.304-1.888-12.512-5.376-17.76l-96-144zM864 576l-128 0 0-192 32 0 96 144 0 48zM1007.872 490.752l-128-192c-17.856-26.784-47.744-42.752-79.872-42.752l-128 0 0-64c0-52.928-43.072-96-96-96l-480 0c-52.928 0-96 43.072-96 96l0 352c0 52.928 43.072 96 96 96l0 0 0 96c0 52.928 43.072 96 96 96l36.544 0c14.304 55.072 64 96 123.488 96 59.424 0 109.12-40.928 123.424-96l169.024 0c14.304 55.072 64 96 123.488 96 59.424 0 109.12-40.928 123.424-96l36.608 0c52.928 0 96-43.072 96-96l0-192c0-19.008-5.568-37.44-16.128-53.248zM96 576c-17.664 0-32-14.304-32-32l0-352c0-17.696 14.336-32 32-32l480 0c17.696 0 32 14.304 32 32l0 352c0 17.696-14.304 32-32 32l-480 0zM352.032 864c-35.36 0-64-28.672-64-64s28.64-64 64-64c35.328 0 64 28.672 64 64s-28.704 64-64 64zM768 864c-35.36 0-64-28.672-64-64s28.64-64 64-64c35.328 0 64 28.672 64 64s-28.672 64-64 64zM960 736c0 17.696-14.304 32-32 32l-36.576 0c-14.304-55.072-64-96-123.424-96-59.488 0-109.184 40.928-123.488 96l-169.024 0c-14.304-55.072-64-96-123.424-96-59.488 0-109.184 40.928-123.488 96l-36.576 0c-17.664 0-32-14.304-32-32l0-96 416 0c52.928 0 96-43.072 96-96l0-224 128 0c10.688 0 20.672 5.344 26.624 14.24l128 192c3.488 5.248 5.376 11.456 5.376 17.76l0 192z" fill="#1ba4f0"></path></svg>