<?xml version="1.0" encoding="utf-8"?>
<!-- Generator: Adobe Illustrator 16.0.0, SVG Export Plug-In . SVG Version: 6.00 Build 0)  -->
<!DOCTYPE svg PUBLIC "-//W3C//DTD SVG 1.1//EN" "http://www.w3.org/Graphics/SVG/1.1/DTD/svg11.dtd">
<svg version="1.1" xmlns="http://www.w3.org/2000/svg" xmlns:xlink="http://www.w3.org/1999/xlink" x="0px" y="0px"
	 width="256px" height="256px" viewBox="0 0 256 256" enable-background="new 0 0 256 256" xml:space="preserve">
<path fill="#1BA4F0" d="M128,255c-17.143,0-33.771-3.354-49.453-9.977c-15.136-6.394-28.697-15.567-40.364-27.206
	c-11.668-11.668-20.813-25.257-27.207-40.365C4.354,161.771,1,145.144,1,128s3.354-33.771,9.977-49.453
	C17.37,63.41,26.544,49.851,38.183,38.183C49.851,26.515,63.439,17.37,78.547,10.977C94.229,4.354,110.857,1,128,1
	c17.144,0,33.771,3.354,49.452,9.977c15.138,6.393,28.697,15.567,40.365,27.206c11.668,11.668,20.813,25.257,27.206,40.365
	C251.646,94.2,255,110.856,255,128s-3.354,33.771-9.977,49.452c-6.393,15.138-15.566,28.697-27.206,40.365
	c-11.668,11.668-25.257,20.813-40.365,27.206C161.771,251.646,145.144,255,128,255z M128,13.614c-15.452,0-30.417,3.01-44.521,8.974
	C69.861,28.35,57.62,36.605,47.127,47.099C36.606,57.62,28.378,69.832,22.616,83.45c-5.962,14.105-8.973,29.069-8.973,44.522
	c0,15.452,3.01,30.417,8.973,44.521c5.762,13.617,14.019,25.858,24.512,36.351c10.521,10.521,22.734,18.749,36.351,24.512
	c14.104,5.963,29.07,8.974,44.521,8.974c15.453,0,30.417-3.011,44.521-8.974c13.618-5.763,25.858-14.019,36.352-24.512
	c10.492-10.492,18.749-22.733,24.512-36.351c5.963-14.104,8.974-29.069,8.974-44.521c0-15.453-3.011-30.417-8.974-44.522
	c-5.763-13.618-14.02-25.858-24.512-36.351c-10.521-10.521-22.733-18.749-36.352-24.511C158.445,16.624,143.453,13.614,128,13.614z"
	/>
<path fill="#1BA4F0" d="M130.175,114.65V52.575L100.1,130.85h30.075v62.075l25.025-65.1l5.05-13.175H130.175z"/>
</svg>
